<?xml version="1.0" encoding="UTF-8" standalone="no"?>
<!-- Created with Inkscape (http://www.inkscape.org/) -->

<svg
   xmlns:dc="http://purl.org/dc/elements/1.1/"
   xmlns:cc="http://creativecommons.org/ns#"
   xmlns:rdf="http://www.w3.org/1999/02/22-rdf-syntax-ns#"
   xmlns:svg="http://www.w3.org/2000/svg"
   xmlns="http://www.w3.org/2000/svg"
   xmlns:sodipodi="http://sodipodi.sourceforge.net/DTD/sodipodi-0.dtd"
   xmlns:inkscape="http://www.inkscape.org/namespaces/inkscape"
   width="394.96964"
   height="383.35287"
   id="svg2"
   version="1.1"
   inkscape:version="0.48.5 r10040"
   sodipodi:docname="hauntedhouse-med.svg">
  <defs
     id="defs4" />
  <sodipodi:namedview
     id="base"
     pagecolor="#ffffff"
     bordercolor="#666666"
     borderopacity="1.0"
     inkscape:pageopacity="0.0"
     inkscape:pageshadow="2"
     inkscape:zoom="0.24748737"
     inkscape:cx="-73.480167"
     inkscape:cy="828.16249"
     inkscape:document-units="px"
     inkscape:current-layer="layer1"
     showgrid="false"
     inkscape:window-width="1920"
     inkscape:window-height="1181"
     inkscape:window-x="-4"
     inkscape:window-y="-4"
     inkscape:window-maximized="1"
     fit-margin-top="0"
     fit-margin-left="0"
     fit-margin-right="0"
     fit-margin-bottom="0" />
  <metadata
     id="metadata7">
    <rdf:RDF>
      <cc:Work
         rdf:about="">
        <dc:format>image/svg+xml</dc:format>
        <dc:type
           rdf:resource="http://purl.org/dc/dcmitype/StillImage" />
        <dc:title></dc:title>
      </cc:Work>
    </rdf:RDF>
  </metadata>
  <g
     inkscape:label="Layer 1"
     inkscape:groupmode="layer"
     id="layer1"
     transform="translate(513.06221,-362.75404)">
    <path
       style="color:#000000;fill:#000000;fill-opacity:1;fill-rule:nonzero;stroke:none;stroke-width:2;marker:none;visibility:visible;display:inline;overflow:visible;enable-background:accumulate"
       d="m -475.78185,625.95939 0,-122.5838 -28.28427,-7.07107 c 45.22732,-21.45047 63.73625,-44.63999 84.85281,-86.87311 l 213.14219,-4.04061 c 9.65886,49.43565 31.98084,68.53385 68.69037,98.99495 l -28.78934,-10e-6 -0.50508,128.64472 z"
       id="path4027"
       inkscape:connector-curvature="0"
       sodipodi:nodetypes="ccccccccc"
       transform="translate(19.288183,113.07647)" />
    <path
       style="color:#000000;fill:#000000;fill-opacity:1;fill-rule:nonzero;stroke:none;stroke-width:2;marker:none;visibility:visible;display:inline;overflow:visible;enable-background:accumulate"
       d="m -256.48347,527.91398 9.09137,-58.58885 -12.62691,-2.0203 c 19.14182,-12.19581 34.80985,-24.99521 50.50763,-46.9721 4.58404,27.90195 8.58935,29.66065 26.26397,50.50763 l -12.62691,0.50508 2.02031,64.64976 z"
       id="path4035"
       inkscape:connector-curvature="0"
       sodipodi:nodetypes="cccccccc" />
    <path
       style="color:#000000;fill:#000000;fill-opacity:1;fill-rule:nonzero;stroke:none;stroke-width:2;marker:none;visibility:visible;display:inline;overflow:visible;enable-background:accumulate"
       d="m -295.37433,531.54849 -1.46447,-108.23606 19.64721,-1.96954 c -26.61792,-15.5381 -53.66583,-32.06594 -66.0127,-58.58885 -2.72032,31.10494 -14.01691,51.00619 -36.36549,70.10408 l 18.68782,-1.56599 5.05076,104.80205 z"
       id="path4037"
       inkscape:connector-curvature="0"
       sodipodi:nodetypes="cccccccc" />
    <path
       style="color:#000000;fill:#000000;fill-opacity:1;fill-rule:nonzero;stroke:none;stroke-width:2;marker:none;visibility:visible;display:inline;overflow:visible;enable-background:accumulate"
       d="m -428.30468,624.94924 -81.82236,4.04061 5.05077,-261.62951 -27.27412,2.0203 c 40.86679,-27.58793 50.88083,-54.4484 64.64976,-98.99495 9.21005,36.89869 25.83583,63.71193 49.49748,91.92389 l -31.31473,-7.07107 z"
       id="path4039"
       inkscape:connector-curvature="0"
       transform="translate(19.288183,113.07647)"
       sodipodi:nodetypes="cccccccc" />
    <path
       style="color:#000000;fill:#ffffff;fill-opacity:1;fill-rule:nonzero;stroke:none;stroke-width:2;marker:none;visibility:visible;display:inline;overflow:visible;enable-background:accumulate"
       d="m -365.32243,625.50508 1.51523,-114.95561 49.64976,0 3.03045,116.47084 z"
       id="path4041"
       inkscape:connector-curvature="0"
       transform="translate(19.288183,113.07647)"
       sodipodi:nodetypes="ccccc" />
    <path
       style="color:#000000;fill:#ffffff;fill-opacity:1;fill-rule:nonzero;stroke:none;stroke-width:2;marker:none;visibility:visible;display:inline;overflow:visible;enable-background:accumulate"
       d="m -275.11946,644.06983 -1.01015,60.10408 49.49747,-1.51523 -1.51523,-58.58885 z"
       id="path4043"
       inkscape:connector-curvature="0" />
    <path
       style="color:#000000;fill:#ffffff;fill-opacity:1;fill-rule:nonzero;stroke:none;stroke-width:2;marker:none;visibility:visible;display:inline;overflow:visible;enable-background:accumulate"
       d="m -212.49,645.07998 1.51523,59.599 38.89087,2.52538 1.51523,-60.60915 z"
       id="path4045"
       inkscape:connector-curvature="0" />
    <path
       style="color:#000000;fill:none;stroke:#000000;stroke-width:5;stroke-miterlimit:4;stroke-dasharray:none;marker:none;visibility:visible;display:inline;overflow:visible;enable-background:accumulate"
       d="m -250.37072,636.49368 -3.53554,76.26652 63.63961,2.52538 -6.06091,-78.7919 32.82996,-0.50507 -1.01016,29.95179 -119.198,-10.60661 1.20823,29.52839 122.5,1.42858"
       id="path4047"
       inkscape:connector-curvature="0"
       sodipodi:nodetypes="ccccccc" />
    <path
       style="color:#000000;fill:#ffffff;fill-opacity:1;fill-rule:nonzero;stroke:none;stroke-width:5;marker:none;visibility:visible;display:inline;overflow:visible;enable-background:accumulate"
       d="m -427.61903,636.9977 -0.71428,66.78571 45.71428,1.07144 -2.14285,-65.71429 z"
       id="path4062"
       inkscape:connector-curvature="0"
       sodipodi:nodetypes="ccccc" />
    <path
       style="color:#000000;fill:none;stroke:#000000;stroke-width:5;stroke-linecap:round;stroke-linejoin:round;stroke-miterlimit:4;stroke-opacity:1;stroke-dasharray:none;stroke-dashoffset:0;marker:none;visibility:visible;display:inline;overflow:visible;enable-background:accumulate"
       d="m -434.04759,655.21199 58.92857,1.42857"
       id="path4064"
       inkscape:connector-curvature="0" />
    <path
       style="color:#000000;fill:#000000;fill-opacity:1;fill-rule:nonzero;stroke:#000000;stroke-width:5;stroke-miterlimit:4;stroke-dasharray:none;marker:none;visibility:visible;display:inline;overflow:visible;enable-background:accumulate"
       d="m -404.40474,632.35485 -2.14285,84.64286"
       id="path4068"
       inkscape:connector-curvature="0"
       sodipodi:nodetypes="cc" />
    <path
       style="color:#000000;fill:#ffffff;fill-opacity:1;fill-rule:nonzero;stroke:none;stroke-width:2;marker:none;visibility:visible;display:inline;overflow:visible;enable-background:accumulate"
       d="m -339.94199,475.64123 31.53615,0.42331 c 1.82923,-26.1477 -0.47658,-35.87336 -18.20208,-52.70135 -19.86005,16.34243 -15.41565,28.19111 -13.33407,52.27804 z"
       id="path4078"
       inkscape:connector-curvature="0"
       sodipodi:nodetypes="cccc" />
    <path
       style="color:#000000;fill:#ffffff;fill-opacity:1;fill-rule:nonzero;stroke:none;stroke-width:2;marker:none;visibility:visible;display:inline;overflow:visible;enable-background:accumulate"
       d="m -256.32621,392.61415 c 1.96702,-27.82688 -0.38998,-26.29212 16.16244,-45.7094 12.91202,18.56774 9.14152,24.39288 8.5863,46.97209 z"
       id="path4080"
       inkscape:connector-curvature="0"
       sodipodi:nodetypes="cccc"
       transform="translate(19.288183,113.07647)" />
    <path
       style="color:#000000;fill:#ffffff;fill-opacity:1;fill-rule:nonzero;stroke:none;stroke-width:2;marker:none;visibility:visible;display:inline;overflow:visible;enable-background:accumulate"
       d="m -486.89353,440.5964 c -5.52999,-31.00996 -2.1246,-52.41552 10.10153,-79.80205 15.34787,30.98834 11.26968,48.68379 10.6066,82.83251 z"
       id="path4082"
       inkscape:connector-curvature="0"
       transform="translate(19.288183,113.07647)"
       sodipodi:nodetypes="cccc" />
    <path
       style="color:#000000;fill:#000000;fill-opacity:1;fill-rule:nonzero;stroke:#000000;stroke-width:5;stroke-miterlimit:4;stroke-dasharray:none;marker:none;visibility:visible;display:inline;overflow:visible;enable-background:accumulate"
       d="m -299.41495,501.04341 50.76017,1.51523"
       id="path4104"
       inkscape:connector-curvature="0" />
    <path
       style="color:#000000;fill:#000000;fill-opacity:1;fill-rule:nonzero;stroke:#000000;stroke-width:5;stroke-linecap:butt;stroke-linejoin:miter;stroke-miterlimit:4;stroke-opacity:1;stroke-dasharray:none;stroke-dashoffset:0;marker:none;visibility:visible;display:inline;overflow:visible;enable-background:accumulate"
       d="m -287.79819,525.36487 0.50507,-23.46233"
       id="path4106"
       inkscape:connector-curvature="0" />
    <path
       style="color:#000000;fill:#000000;fill-opacity:1;fill-rule:nonzero;stroke:#000000;stroke-width:5;stroke-linecap:butt;stroke-linejoin:miter;stroke-miterlimit:4;stroke-opacity:1;stroke-dasharray:none;stroke-dashoffset:0;marker:none;visibility:visible;display:inline;overflow:visible;enable-background:accumulate"
       d="m -277.94921,502.45677 1.26269,26.97244"
       id="path4108"
       inkscape:connector-curvature="0" />
    <path
       style="color:#000000;fill:#000000;fill-opacity:1;fill-rule:nonzero;stroke:#000000;stroke-width:5;stroke-linecap:butt;stroke-linejoin:miter;stroke-miterlimit:4;stroke-opacity:1;stroke-dasharray:none;stroke-dashoffset:0;marker:none;visibility:visible;display:inline;overflow:visible;enable-background:accumulate"
       d="m -268.6053,502.08729 0.75762,23.8318"
       id="path4110"
       inkscape:connector-curvature="0" />
    <path
       style="color:#000000;fill:#000000;fill-opacity:1;fill-rule:nonzero;stroke:#000000;stroke-width:5;stroke-linecap:butt;stroke-linejoin:miter;stroke-miterlimit:4;stroke-opacity:1;stroke-dasharray:none;stroke-dashoffset:0;marker:none;visibility:visible;display:inline;overflow:visible;enable-background:accumulate"
       d="m -258.50377,502.45677 -1.26269,23.64706"
       id="path4112"
       inkscape:connector-curvature="0" />
    <path
       style="color:#000000;fill:none;stroke:#000000;stroke-width:5;stroke-linecap:butt;stroke-linejoin:miter;stroke-miterlimit:4;stroke-opacity:1;stroke-dasharray:none;stroke-dashoffset:0;marker:none;visibility:visible;display:inline;overflow:visible;enable-background:accumulate"
       d="M -475.71429,354.28571 -477.5,446.42857 -460,452.5 -461.42857,421.78571 -494.28572,420 l 2.14286,-31.07143 31.78572,1.42857"
       id="path4128"
       inkscape:connector-curvature="0"
       transform="translate(19.288183,113.07647)" />
    <path
       style="color:#000000;fill:none;stroke:#000000;stroke-width:5;stroke-linecap:butt;stroke-linejoin:miter;stroke-miterlimit:4;stroke-opacity:1;stroke-dasharray:none;stroke-dashoffset:0;marker:none;visibility:visible;display:inline;overflow:visible;enable-background:accumulate"
       d="m -345.71429,307.14286 1.42858,60 23.21428,3.21428 -3.21428,-21.07143 -40.71429,-1.42857 -1.07143,-23.57143 39.64286,2.5"
       id="path4130"
       inkscape:connector-curvature="0"
       transform="translate(19.288183,113.07647)" />
    <path
       inkscape:connector-curvature="0"
       id="path4132"
       d="m -221.06896,457.00504 -6.07142,60 30.71428,3.21428 -4.64285,-28.21429 -40.35715,-1.78571 0,-16.07143 39.64286,2.5"
       style="color:#000000;fill:none;stroke:#000000;stroke-width:5;stroke-linecap:butt;stroke-linejoin:miter;stroke-miterlimit:4;stroke-opacity:1;stroke-dasharray:none;stroke-dashoffset:0;marker:none;visibility:visible;display:inline;overflow:visible;enable-background:accumulate"
       sodipodi:nodetypes="ccccccc" />
    <path
       inkscape:connector-curvature="0"
       id="path4142"
       d="m -432.53236,680.97088 58.92857,1.42857"
       style="color:#000000;fill:none;stroke:#000000;stroke-width:5;stroke-linecap:round;stroke-linejoin:round;stroke-miterlimit:4;stroke-opacity:1;stroke-dasharray:none;stroke-dashoffset:0;marker:none;visibility:visible;display:inline;overflow:visible;enable-background:accumulate" />
    <path
       style="color:#000000;fill:#ffffff;fill-opacity:1;fill-rule:nonzero;stroke:none;stroke-width:2;marker:none;visibility:visible;display:inline;overflow:visible;enable-background:accumulate"
       d="m -324.00013,603.18829 c 0,0 -39.94411,-8.18887 -50.00868,-25.50329 -19.52408,-33.58795 30.51669,-45.67326 31.26295,-19.67147 0.34136,11.89387 18.97079,25.87895 24.36715,35.23478 l -5.34891,-1.17459 3.55754,8.62589 -7.31527,-6.38608 z"
       id="path4221"
       inkscape:connector-curvature="0"
       sodipodi:nodetypes="cssccccc" />
    <path
       style="color:#000000;fill:#ffffff;fill-opacity:1;fill-rule:nonzero;stroke:none;stroke-width:2;marker:none;visibility:visible;display:inline;overflow:visible;enable-background:accumulate"
       d="m -483.04383,721.51589 c 0,0 11.66049,-15.73676 7.56909,-31.86694 -4.0914,-16.13019 29.04894,-32.06366 29.04894,-1.57368 -1e-5,33.02846 -36.61803,33.44062 -36.61803,33.44062 z"
       id="path4223"
       inkscape:connector-curvature="0"
       sodipodi:nodetypes="cssc" />
    <path
       style="color:#000000;fill:#000000;fill-opacity:1;fill-rule:nonzero;stroke:none;stroke-width:2;marker:none;visibility:visible;display:inline;overflow:visible;enable-background:accumulate"
       d="m -371.12701,564.88039 c 3.64892,9.72077 11.21589,4.32463 7.08372,-1.78074 -4.13217,-6.10537 -9.92938,-5.80014 -7.08372,1.78074 z"
       id="path4225"
       inkscape:connector-curvature="0"
       sodipodi:nodetypes="sss" />
    <path
       style="color:#000000;fill:#000000;fill-opacity:1;fill-rule:nonzero;stroke:none;stroke-width:2;marker:none;visibility:visible;display:inline;overflow:visible;enable-background:accumulate"
       d="m -359.70937,560.2144 c 1.97962,11.09478 9.89197,6.8925 8.1962,0.29967 -1.69576,-6.59282 -10.17581,-11.39445 -8.1962,-0.29967 z"
       id="path4227"
       inkscape:connector-curvature="0"
       sodipodi:nodetypes="zzz" />
    <path
       style="color:#000000;fill:#000000;fill-opacity:1;fill-rule:nonzero;stroke:none;stroke-width:2;marker:none;visibility:visible;display:inline;overflow:visible;enable-background:accumulate"
       d="m -358.74647,575.22783 c 4.11364,12.36904 10.82841,8.86151 8.392,-0.18462 -2.43638,-9.04612 -10.25608,-5.42038 -8.392,0.18462 z"
       id="path4229"
       inkscape:connector-curvature="0"
       sodipodi:nodetypes="sss" />
    <path
       style="color:#000000;fill:#000000;fill-opacity:1;fill-rule:nonzero;stroke:none;stroke-width:2;marker:none;visibility:visible;display:inline;overflow:visible;enable-background:accumulate"
       d="m -462.90926,690.57228 c -3.77539,11.94174 1.63249,11.38769 4.66427,3.89579 3.03177,-7.49191 -2.34525,-11.23095 -4.66427,-3.89579 z"
       id="path4231"
       inkscape:connector-curvature="0"
       sodipodi:nodetypes="sss" />
    <path
       style="color:#000000;fill:#000000;fill-opacity:1;fill-rule:nonzero;stroke:none;stroke-width:2;marker:none;visibility:visible;display:inline;overflow:visible;enable-background:accumulate"
       d="m -465.54291,680.39806 c -3.52199,6.97342 2.10182,9.76578 5.04438,3.0518 2.94256,-6.71398 -1.5224,-10.02523 -5.04438,-3.0518 z"
       id="path4233"
       inkscape:connector-curvature="0"
       sodipodi:nodetypes="zzz" />
    <path
       style="color:#000000;fill:#000000;fill-opacity:1;fill-rule:nonzero;stroke:none;stroke-width:2;marker:none;visibility:visible;display:inline;overflow:visible;enable-background:accumulate"
       d="m -457.81529,683.0021 c 1.06517,7.43866 9.03345,6.27498 6.54145,0.502 -2.49198,-5.77298 -7.36344,-6.24233 -6.54145,-0.502 z"
       id="path4235"
       inkscape:connector-curvature="0"
       sodipodi:nodetypes="sss" />
  </g>
</svg>
